<?xml version="1.0" standalone="no"?><svg xmlns="http://www.w3.org/2000/svg" viewBox="0 0 1440 320"><path fill="#ffffff" fill-opacity="1" d="M0,96L30,122.7C60,149,120,203,180,229.3C240,256,300,256,360,234.7C420,213,480,171,540,149.3C600,128,660,128,720,138.7C780,149,840,171,900,181.3C960,192,1020,192,1080,176C1140,160,1200,128,1260,128C1320,128,1380,160,1410,176L1440,192L1440,320L1410,320C1380,320,1320,320,1260,320C1200,320,1140,320,1080,320C1020,320,960,320,900,320C840,320,780,320,720,320C660,320,600,320,540,320C480,320,420,320,360,320C300,320,240,320,180,320C120,320,60,320,30,320L0,320Z"></path></svg>